<svg width="11" height="12" viewBox="0 0 11 12" fill="none" xmlns="http://www.w3.org/2000/svg">
<path d="M9.493 4.31256L9.29822 9.97236C9.28163 10.4571 9.06893 10.9165 8.70527 11.2532C8.3416 11.5898 7.85561 11.7772 7.35042 11.7754H3.64961C3.14475 11.7772 2.65903 11.5901 2.29542 11.2538C1.93181 10.9176 1.7189 10.4586 1.70181 9.97423L1.50703 4.31256C1.50277 4.18858 1.54998 4.06804 1.63829 3.97748C1.7266 3.88692 1.84876 3.83374 1.97791 3.82965C2.10706 3.82556 2.23261 3.87089 2.32694 3.95566C2.42127 4.04044 2.47667 4.15772 2.48093 4.2817L2.67571 9.9429C2.68541 10.1846 2.79228 10.4132 2.97388 10.5809C3.15548 10.7485 3.39768 10.8421 3.64961 10.8419H7.35042C7.60267 10.842 7.84515 10.7482 8.0268 10.5802C8.20846 10.4122 8.31511 10.183 8.32432 9.94103L8.5191 4.2817C8.52336 4.15772 8.57875 4.04044 8.67309 3.95566C8.76742 3.87089 8.89297 3.82556 9.02212 3.82965C9.15127 3.83374 9.27343 3.88692 9.36174 3.97748C9.45004 4.06804 9.49726 4.18858 9.493 4.31256ZM10.1372 2.42908C10.1372 2.55306 10.0859 2.67197 9.99461 2.75964C9.90329 2.84731 9.77943 2.89656 9.65028 2.89656H1.35023C1.22108 2.89656 1.09723 2.84731 1.00591 2.75964C0.914585 2.67197 0.863281 2.55306 0.863281 2.42908C0.863281 2.30509 0.914585 2.18619 1.00591 2.09852C1.09723 2.01085 1.22108 1.9616 1.35023 1.9616H2.85977C3.01406 1.96199 3.16299 1.90727 3.27757 1.80807C3.39215 1.70888 3.46418 1.5723 3.47966 1.42493C3.51559 1.07922 3.68431 0.758734 3.95292 0.525917C4.22154 0.2931 4.57082 0.164628 4.93272 0.165532H6.06731C6.4292 0.164628 6.77849 0.2931 7.0471 0.525917C7.31572 0.758734 7.48443 1.07922 7.52037 1.42493C7.53584 1.5723 7.60788 1.70888 7.72246 1.80807C7.83704 1.90727 7.98597 1.96199 8.14025 1.9616H9.6498C9.77894 1.9616 9.9028 2.01085 9.99412 2.09852C10.0854 2.18619 10.1367 2.30509 10.1367 2.42908H10.1372ZM4.325 1.9616H6.676C6.61201 1.82123 6.57016 1.6725 6.55182 1.52029C6.53976 1.40506 6.48357 1.29823 6.39415 1.2205C6.30473 1.14277 6.18843 1.09967 6.0678 1.09956H4.93321C4.81257 1.09967 4.69628 1.14277 4.60685 1.2205C4.51743 1.29823 4.46124 1.40506 4.44918 1.52029C4.43069 1.67252 4.38916 1.82126 4.325 1.9616ZM4.81536 9.0444V5.0638C4.81536 4.93982 4.76406 4.82091 4.67274 4.73324C4.58142 4.64557 4.45756 4.59632 4.32841 4.59632C4.19927 4.59632 4.07541 4.64557 3.98409 4.73324C3.89277 4.82091 3.84146 4.93982 3.84146 5.0638V9.04628C3.84146 9.17026 3.89277 9.28916 3.98409 9.37683C4.07541 9.4645 4.19927 9.51376 4.32841 9.51376C4.45756 9.51376 4.58142 9.4645 4.67274 9.37683C4.76406 9.28916 4.81536 9.17026 4.81536 9.04628V9.0444ZM7.15954 9.0444V5.0638C7.15954 4.93982 7.10823 4.82091 7.01691 4.73324C6.92559 4.64557 6.80174 4.59632 6.67259 4.59632C6.54344 4.59632 6.41958 4.64557 6.32826 4.73324C6.23694 4.82091 6.18564 4.93982 6.18564 5.0638V9.04628C6.18564 9.17026 6.23694 9.28916 6.32826 9.37683C6.41958 9.4645 6.54344 9.51376 6.67259 9.51376C6.80174 9.51376 6.92559 9.4645 7.01691 9.37683C7.10823 9.28916 7.15954 9.17026 7.15954 9.04628V9.0444Z" fill="white"/>
</svg>
