<svg width="96" height="97" viewBox="0 0 96 97" fill="none" xmlns="http://www.w3.org/2000/svg">
<path d="M31.3919 40.425C31.1922 42.7758 30.6792 45.1005 29.8658 47.3169C29.6214 47.9811 29.3191 48.6749 28.7277 49.063C27.9143 49.5986 26.8415 49.384 25.8994 49.1283C25.8938 49.1264 25.8863 49.1248 25.8807 49.1229C25.7949 49.703 25.7613 50.3465 25.6979 50.9846C25.6718 51.246 25.6363 51.5144 25.4945 51.7328C25.3677 51.9287 25.1662 52.063 24.9535 52.1582C24.9404 52.1636 24.9274 52.1694 24.9143 52.1751C24.6158 52.3037 24.2912 52.3671 23.9665 52.3633C23.5934 52.3598 23.2259 52.2646 22.8677 52.1563C21.599 51.7739 20.3882 51.203 19.2875 50.4659C19.989 45.479 18.3155 41.8505 18.7371 40.4753C18.9498 39.7869 19.3267 39.1619 19.6811 38.5352C20.183 37.6545 20.6513 36.7515 21.252 35.9364C21.8546 35.121 22.6027 34.3877 23.5262 33.968C24.5897 33.4866 25.8229 33.4551 26.9553 33.7366C29.0971 34.2702 30.9609 36.024 31.3527 38.1936C31.4851 38.9288 31.4534 39.6806 31.3919 40.425Z" fill="#F9BEAC"/>
<path d="M22.8101 32.4684C22.8101 32.4684 19.2001 30.7147 17.2971 33.9946C15.3941 37.2745 16.4687 40.1064 17.3325 42.0598C18.1982 44.0113 19.3083 47.1119 19.3083 47.808C19.3083 47.808 22.0713 46.4646 22.9146 43.0991C22.9146 43.0991 20.7243 42.3508 21.5825 40.22C22.4407 38.0896 25.478 39.4441 24.6739 44.3173C24.6739 44.3173 25.7541 41.2482 26.5601 40.2818C27.3661 39.3174 28.0209 39.1884 30.2131 39.5577C32.4053 39.9274 36.2446 38.6455 36.2446 33.9067C36.2446 33.9067 33.8865 34.4795 32.0655 34.013C29.4108 33.3342 26.1832 29.4759 22.8101 32.4684Z" fill="black"/>
<path d="M25.6988 50.9849C25.6726 51.246 25.6372 51.5147 25.4954 51.7328C25.3685 51.9286 25.167 52.063 24.9544 52.1582L23.1055 47.6416C24.154 48.5166 25.8816 49.1228 25.8816 49.1228C25.8816 49.1228 25.7622 50.3468 25.6988 50.9849Z" fill="white"/>
<path d="M45.0542 65.1318C45.6458 66.0966 46.2578 67.1728 46.0151 68.2605C45.9461 68.5665 45.8117 68.8575 45.6458 69.1281C45.3978 69.5312 45.0561 69.9098 44.5896 70.0741C44.3919 70.1448 44.1773 70.1728 43.9646 70.1674C43.4927 70.1563 43.0282 69.9751 42.6888 69.671C42.187 69.2214 41.9854 68.5273 42.0787 67.8857C42.172 67.2438 42.5375 66.6541 43.017 66.1842C43.558 65.6543 44.2521 65.257 45.0542 65.1318ZM40.3679 70.4342C40.8605 71.8091 41.183 73.2719 41.0525 74.7251C40.9219 76.1786 40.295 77.6299 39.1551 78.5421C38.7727 78.8481 38.325 79.0946 37.8382 79.1356C36.896 79.2159 36.0191 78.4769 35.7112 77.5815C35.4033 76.6877 35.5638 75.6934 35.8978 74.8072C36.6607 72.7774 38.3492 71.115 40.3679 70.4342Z" fill="#F9BEAC"/>
<path d="M58.0626 48.7555C54.3557 52.9346 50.6485 57.1156 46.9398 61.2946C46.5405 61.0335 46.1842 60.832 45.8279 60.6285C45.5238 60.455 45.2178 60.2818 44.9268 60.0857C43.7831 59.317 42.882 58.2274 41.7383 57.4607C45.1917 53.0167 48.7196 49 52.5517 44.7407C54.492 45.9459 56.3369 47.3023 58.0626 48.7555Z" fill="#6F7475"/>
<path d="M19.999 50.5596C19.999 50.5596 12.7062 51.3097 9.41142 55.136C6.11665 58.9626 8.00843 74.845 8.57 79.9214C8.57 79.9214 22.2845 81.9193 30.2266 80.4977L38.5717 65.8637C38.5717 65.8637 35.8666 60.9737 34.8346 56.8955C33.803 52.8171 30.0325 50.7089 25.4617 51.0725L24.0289 51.9755L19.999 50.5596Z" fill="#C1092A"/>
<path d="M22.8438 53.752L24.5378 56.1846L22.8922 72.7128L28.2822 77.1717L26.1124 55.9704L26.6366 53.1082L25.396 51.5337L24.1086 51.6773L22.8438 53.752Z" fill="#6F7475"/>
<path d="M26.8222 54.8578C27.1785 53.617 27.3968 52.3373 27.4695 51.05C27.0068 50.3746 26.4658 49.7849 25.8371 49.3131C25.7793 50.1973 25.324 51.0239 24.6375 51.5594C22.6263 50.6434 20.7233 49.5035 18.9882 48.1509C18.283 49.0481 17.7215 50.0218 17.2383 51.078C19.0051 52.9493 21.0946 54.5145 23.3744 55.6917C23.5684 54.3633 24.0143 53.0725 24.699 51.9138C25.6151 52.6898 26.2345 53.7532 26.8222 54.8578Z" fill="#C1092A"/>
<path d="M50.0979 60.0293C46.6744 56.6058 41.9171 54.6094 41.9171 54.6094L19.1094 81.6672C20.9806 84.6016 23.8332 86.9002 27.0981 88.1053C27.0981 88.1053 50.5701 60.5012 50.0979 60.0293ZM53.3609 11.9904C39.2453 21.2423 41.1277 40.6228 53.9525 49.2812C66.7769 57.9396 88.3011 49.5834 88.3011 30.2478C88.3011 10.7386 66.4429 3.41587 53.3609 11.9904ZM56.458 45.3616C46.32 38.5165 44.8311 23.1956 55.9916 15.8822C66.3327 9.10428 83.6126 14.8916 83.6126 30.3149C83.6126 45.6004 66.5961 52.2067 56.458 45.3616Z" fill="black"/>
<path d="M54.4375 68.3969C54.3907 70.4513 54.484 72.5072 54.7136 74.5501C55.6669 74.4995 56.6202 74.4473 57.5735 74.397C57.5662 72.3187 57.5605 70.2386 57.5531 68.16C56.5626 68.1788 55.5717 68.1992 54.4375 68.3969ZM60.5009 63.3244C60.4541 67.0723 60.5474 70.8244 60.777 74.5501C61.7303 74.4568 62.6836 74.3635 63.6369 74.2721C63.6296 70.4774 63.6239 66.6845 63.6165 62.8898C62.626 62.927 61.6351 62.9624 60.5009 63.3244ZM66.5643 65.4829C66.5175 68.5109 66.6108 71.5424 66.8404 74.5536C67.7937 74.4791 68.747 74.4024 69.7003 74.3279C69.693 71.2626 69.6872 68.1973 69.6799 65.132C68.6894 65.1619 67.6985 65.1899 66.5643 65.4829ZM72.8143 59.373C72.7675 64.4401 72.8608 69.5145 73.0904 74.5501C74.0437 74.425 74.997 74.2982 75.9503 74.1731C75.943 69.0446 75.9372 63.9138 75.9299 58.7852C74.9394 58.8336 73.9485 58.8842 72.8143 59.373ZM79.3442 53.4475C79.2974 60.369 79.3907 67.6732 79.6202 74.5536C80.5735 74.382 81.5268 74.2104 82.4802 74.0387C82.4728 67.0313 82.4671 60.0238 82.4598 53.0186C81.4689 53.0838 80.4745 52.9234 79.3442 53.4475Z" fill="white"/>
<path d="M17.2305 57.1377C19.488 59.3579 21.0104 62.1956 22.7361 64.8504C24.4226 67.4435 26.3256 69.8933 28.4226 72.1674C28.6596 72.425 28.9058 72.6842 29.2137 72.8485C29.5551 73.0293 29.9469 73.0835 30.3312 73.1283C32.8666 73.4267 35.4225 73.5311 37.9729 73.4436C38.0681 73.4397 38.1687 73.4378 38.2528 73.4827C38.3667 73.5442 38.4206 73.6751 38.4616 73.796C39.1857 75.8969 38.7864 78.3483 37.3386 80.1209C34.8777 80.4415 32.4132 80.7214 29.9431 80.9586C28.792 81.0684 27.6241 81.1694 26.4842 80.9732C24.1652 80.5724 22.2436 79.0052 20.4656 77.466C17.4283 74.8372 14.4283 72.0817 12.2623 68.6993C11.4563 67.44 10.7511 65.9193 11.197 64.4903C11.4004 63.8392 11.8257 63.2832 12.2548 62.7534C13.8612 60.7796 15.6522 58.9529 17.2305 57.1377Z" fill="#C1092A"/>
<path d="M43.9638 70.1689C43.143 70.1689 42.2588 69.7435 41.7793 69.3611C41.2997 68.9787 40.9135 68.4937 40.548 68.0012C40.2363 67.5812 39.9191 67.0775 40.0497 66.5722C40.184 66.0535 40.7269 65.7679 41.216 65.5459C41.5592 65.3893 41.9194 65.2307 42.296 65.238C42.7176 65.2473 43.1038 65.4657 43.4566 65.6969C43.9584 66.0274 44.4303 66.4002 44.8707 66.811C45.033 66.9619 45.1989 67.1316 45.2496 67.3481C45.3053 67.5888 45.2066 67.8369 45.0983 68.0588C44.7251 68.8109 44.714 69.6148 43.9638 70.1689Z" fill="#F9BEAC"/>
<path d="M17.4865 51.4942C19.369 52.9773 21.2515 54.4586 23.1339 55.9417C23.2384 56.0239 23.41 56.007 23.4455 55.858C23.7514 54.535 24.2253 53.2626 24.8652 52.0651C24.7682 52.0782 24.6693 52.0912 24.5723 52.1059C25.41 53.1693 26.2495 54.2328 27.0872 55.2963C27.1842 55.4176 27.3559 55.3262 27.3988 55.2122C27.8838 53.9399 28.0163 52.565 27.7999 51.2217C27.7607 50.9848 27.4007 51.08 27.438 51.315C27.645 52.5949 27.4995 53.9045 27.0387 55.1154C27.1432 55.0874 27.2458 55.0594 27.3503 55.0314C26.5126 53.9679 25.6731 52.9044 24.8354 51.841C24.7607 51.7461 24.5928 51.7852 24.5425 51.882C23.8895 53.106 23.3988 54.4102 23.0873 55.7628C23.1917 55.7347 23.2943 55.7067 23.3988 55.6787C21.5164 54.1956 19.6339 52.7143 17.7515 51.2309C17.563 51.0819 17.2981 51.3468 17.4865 51.4942Z" fill="black"/>
<path d="M23.5868 55.1284C23.7753 55.272 23.9189 55.4494 24.0309 55.6582C24.0868 55.7608 24.1353 55.8671 24.1764 55.9754C24.2155 56.0763 24.2491 56.1823 24.3499 56.2384C24.4562 56.2982 24.5868 56.2702 24.7025 56.261C24.8443 56.2495 24.9861 56.2365 25.126 56.2253C25.4096 56.2011 25.6913 56.1788 25.9749 56.1546C26.0569 56.147 26.1353 56.1024 26.1558 56.0164C26.292 55.4436 26.4487 54.8746 26.626 54.3114C26.6988 54.0818 26.3368 53.9866 26.2659 54.2143C26.0887 54.7775 25.932 55.3449 25.7958 55.9193C25.8555 55.8728 25.917 55.8279 25.9767 55.7815C25.7118 55.8037 25.4469 55.826 25.1801 55.8486C25.057 55.8598 24.932 55.869 24.8088 55.8802C24.738 55.8859 24.667 55.8932 24.5961 55.897C24.5663 55.9009 24.5383 55.9028 24.5085 55.9028C24.5532 55.9454 24.5682 55.955 24.5551 55.9305C24.5682 55.9212 24.445 55.6582 24.432 55.6302C24.3891 55.5369 24.3406 55.4436 24.2865 55.3561C24.1689 55.1676 24.0253 54.9979 23.848 54.8616C23.7678 54.8001 23.6615 54.7852 23.585 54.8635C23.5197 54.9288 23.5066 55.0685 23.5868 55.1284Z" fill="black"/>
<path d="M24.2484 56.4212C24.1085 57.9193 23.9891 59.4213 23.8883 60.9232C23.8715 61.1639 24.2465 61.1639 24.2615 60.9251C24.3622 59.4232 24.4816 57.9232 24.6215 56.4231C24.6439 56.1824 24.2708 56.1843 24.2484 56.4212ZM25.9479 56.1379C26.2502 60.1135 26.7576 64.0687 27.1793 68.0313C27.2651 68.8317 27.3472 69.6322 27.4087 70.4324C27.4274 70.6712 27.8005 70.6731 27.7819 70.4343C27.5058 66.8188 26.9927 63.2198 26.6308 59.6117C26.5151 58.4549 26.4088 57.2981 26.3211 56.1398C26.3024 55.901 25.9293 55.8971 25.9479 56.1379ZM22.754 79.4416C21.0525 77.8745 19.3529 76.3073 17.6515 74.7401C16.1664 73.3706 14.6813 71.9881 13.3977 70.4247C12.6739 69.5424 12.0246 68.6022 11.4873 67.5947C11.3735 67.382 11.0507 67.5702 11.1646 67.7813C12.116 69.5628 13.4201 71.1246 14.8306 72.5609C16.3455 74.102 17.9686 75.5386 19.5563 77.003C20.5358 77.9044 21.5134 78.8071 22.4928 79.7085C22.6682 79.8705 22.9313 79.6056 22.754 79.4416Z" fill="black"/>
<path d="M12.9797 55.3165C14.6625 55.4489 16.1363 56.4137 17.3472 57.5291C18.4591 58.5553 19.4199 59.7363 20.2949 60.9675C22.0505 63.4377 23.4833 66.126 25.2949 68.557C26.3004 69.9061 27.4217 71.1689 28.7389 72.2213C28.9236 72.3687 29.1885 72.1057 29 71.9563C26.5803 70.0255 24.8713 67.4191 23.2445 64.8257C21.6158 62.2287 20.0132 59.5535 17.7762 57.4227C16.4554 56.1634 14.8453 55.0907 12.9815 54.9433C12.7409 54.9248 12.7408 55.298 12.9797 55.3165ZM30.2837 69.0831C30.9217 65.7509 30.8975 62.3144 30.2072 58.9937C30.1587 58.7584 29.7967 58.8536 29.8452 59.087C30.5225 62.3424 30.5486 65.7194 29.9217 68.9859C29.8788 69.2228 30.2389 69.3199 30.2837 69.0831ZM51.3692 77.1597C56.151 76.8184 60.9401 76.5853 65.7293 76.3596C70.5764 76.13 75.4231 75.91 80.2645 75.5983C82.9455 75.4247 85.6245 75.2232 88.2982 74.9732C88.5351 74.951 88.5389 74.5778 88.3001 74.6001C83.5275 75.0462 78.7422 75.3391 73.955 75.5871C69.1098 75.839 64.2611 76.0424 59.4159 76.2959C56.733 76.4379 54.0501 76.5946 51.3711 76.785C51.1342 76.8034 51.1304 77.1766 51.3692 77.1597ZM56.207 64.1302C57.929 62.6318 59.6528 61.1356 61.3747 59.6375C61.5594 59.4771 61.804 59.158 62.0724 59.2813C62.3261 59.3987 62.5576 59.606 62.7853 59.7662C63.233 60.0817 63.6771 60.3989 64.121 60.7179C65.0444 61.384 65.9623 62.0593 66.8711 62.7458C67.0892 62.9098 67.3057 63.0741 67.5222 63.2403C67.69 63.3689 67.8747 63.5498 68.1062 63.4903C68.2889 63.4435 68.3972 63.2757 68.5016 63.134C68.6732 62.9025 68.8449 62.671 69.0184 62.4417C69.6676 61.5891 70.3468 60.759 71.0425 59.9454C72.4381 58.3149 73.9101 56.7515 75.397 55.2066C77.1581 53.3745 78.9288 51.5535 80.6956 49.7272C80.8615 49.5555 80.5966 49.2925 80.4307 49.4661C77.3559 52.6431 74.203 55.7645 71.2909 59.0928C70.5856 59.8986 69.8972 60.7198 69.233 61.563C68.9101 61.9734 68.5911 62.3895 68.2813 62.8111C68.2087 62.9098 68.1377 63.0687 68.0148 63.0929C67.8989 63.1152 67.7311 62.9378 67.6397 62.8671C67.4213 62.7009 67.2032 62.535 66.9828 62.3707C66.0856 61.6935 65.1807 61.0274 64.2684 60.3708C63.8131 60.0426 63.3543 59.7159 62.8951 59.3933C62.5576 59.1561 62.1284 58.7253 61.6826 58.9288C61.44 59.0405 61.2385 59.2663 61.0407 59.4379C60.8077 59.6395 60.5743 59.8429 60.3431 60.0442C59.8544 60.4695 59.3656 60.8949 58.8765 61.3184C57.899 62.1692 56.9215 63.0181 55.9437 63.8688C55.759 64.0255 56.0258 64.2888 56.207 64.1302ZM49.9328 33.7012C51.1902 33.7047 52.4457 33.7104 53.7031 33.7142C53.7687 33.7142 53.8339 33.6786 53.8655 33.6209C55.4979 30.6208 57.3488 27.744 59.401 25.0145C59.2927 25.0145 59.1844 25.0145 59.0781 25.0145C61.7237 28.4529 64.5295 31.7682 67.4923 34.9398C68.3093 35.8148 69.1416 36.6824 69.8131 37.6787C69.873 37.7682 70.0277 37.8185 70.108 37.716C72.0165 35.2534 73.9046 32.7737 75.7702 30.2794C75.6861 30.3018 75.6005 30.326 75.5164 30.3484C76.7853 31.2104 78.0446 32.0854 79.3131 32.9472C79.7757 33.2627 80.2384 33.576 80.7087 33.8782C80.9736 34.0498 81.2442 34.2402 81.5368 34.3635C81.7553 34.4568 81.9438 34.132 81.7218 34.0387C81.4289 33.9155 81.1602 33.7254 80.8933 33.5538C80.423 33.2513 79.9604 32.938 79.4978 32.6227C78.2292 31.7608 76.9699 30.8857 75.7011 30.0238C75.6116 29.9622 75.5034 30.0182 75.4473 30.0928C73.6006 32.561 71.7328 35.0146 69.845 37.453C69.9437 37.466 70.0408 37.4772 70.1398 37.4902C69.554 36.6226 68.8525 35.8447 68.1377 35.0815C67.4028 34.2944 66.6695 33.5031 65.9512 32.7011C64.5034 31.0872 63.0932 29.4399 61.7237 27.7571C60.9363 26.7906 60.1638 25.8149 59.4048 24.8261C59.3134 24.7067 59.1714 24.7048 59.0819 24.8261C57.0298 27.5555 55.1789 30.4324 53.5464 33.4324C53.6006 33.4006 53.6547 33.3691 53.7088 33.3392C52.4514 33.3353 51.1956 33.3299 49.9382 33.3261C49.694 33.328 49.694 33.7012 49.9328 33.7012Z" fill="black"/>
<path d="M51.7859 38.8936C52.8083 39.0391 53.9501 39.1677 54.8327 38.5093C55.2823 38.1734 55.6294 37.7069 55.9818 37.2761C56.3569 36.815 56.7225 36.347 57.0787 35.8729C57.8063 34.9027 58.4931 33.901 59.1366 32.8729C59.2898 32.6286 59.4407 32.3822 59.5881 32.1342C59.7298 31.8954 59.8623 31.6025 60.1198 31.4663C60.3606 31.3375 60.6665 31.3301 60.9315 31.2928C61.2674 31.2461 61.603 31.1976 61.9389 31.151C64.5043 30.7891 67.0713 30.442 69.6328 30.0633C69.8513 30.0316 70.0694 29.985 70.241 29.8376C70.4387 29.6697 70.5432 29.4215 70.6572 29.1939C70.9501 28.6118 71.243 28.0316 71.536 27.4495C72.1215 26.2872 72.7074 25.1249 73.2932 23.9626C73.6142 23.3264 73.9351 22.6902 74.2561 22.0522C74.5767 21.4141 74.8792 20.7593 75.2244 20.1343C75.4014 19.8134 75.7243 19.8339 76.0487 19.8022C76.4165 19.7667 76.7839 19.7313 77.1514 19.6977C77.8866 19.6268 78.6214 19.5578 79.3586 19.4869C79.5954 19.4645 79.5993 19.0914 79.3605 19.1138C78.7166 19.1753 78.0731 19.2369 77.4293 19.2985C76.8174 19.3563 76.1942 19.3862 75.5861 19.4776C74.9986 19.5653 74.84 20.0634 74.5993 20.5391C74.3064 21.1212 74.0135 21.7014 73.7205 22.2835C72.5638 24.5802 71.4181 26.8842 70.2486 29.1753C70.1292 29.4085 70.0153 29.6006 69.7465 29.6659C69.4408 29.7406 69.1161 29.7611 68.8044 29.8059C68.1628 29.8973 67.5228 29.9868 66.8809 30.0783C65.5993 30.2592 64.3158 30.4402 63.0339 30.623C62.4073 30.7107 61.7822 30.8002 61.1553 30.8879C60.6516 30.9588 60.0415 30.9551 59.6645 31.3506C59.4986 31.526 59.3846 31.7443 59.2617 31.9495C59.0994 32.2219 58.9335 32.4924 58.7634 32.763C58.4409 33.276 58.1069 33.7835 57.7636 34.2834C56.9874 35.4102 56.1592 36.5017 55.2747 37.5445C54.8642 38.0298 54.4296 38.4364 53.7915 38.5781C53.1665 38.7162 52.5061 38.6268 51.8792 38.537C51.6461 38.4997 51.5471 38.8598 51.7859 38.8936ZM59.3251 25.582C59.703 25.582 60.0097 25.2872 60.0097 24.9235C60.0097 24.5597 59.703 24.2649 59.3251 24.2649C58.9468 24.2649 58.6402 24.5597 58.6402 24.9235C58.6402 25.2872 58.9468 25.582 59.3251 25.582ZM53.8046 34.0112C54.1829 34.0112 54.4892 33.716 54.4892 33.3524C54.4892 32.9888 54.1829 32.6939 53.8046 32.6939C53.4263 32.6939 53.12 32.9888 53.12 33.3524C53.12 33.716 53.4263 34.0112 53.8046 34.0112Z" fill="black"/>
<path d="M54.4932 39.4197C54.8714 39.4197 55.1781 39.1248 55.1781 38.7612C55.1781 38.3973 54.8714 38.1024 54.4932 38.1024C54.1152 38.1024 53.8086 38.3973 53.8086 38.7612C53.8086 39.1248 54.1152 39.4197 54.4932 39.4197ZM59.8105 32.0037C60.1885 32.0037 60.4951 31.7088 60.4951 31.3451C60.4951 30.9813 60.1885 30.6865 59.8105 30.6865C59.4323 30.6865 59.1257 30.9813 59.1257 31.3451C59.1257 31.7088 59.4323 32.0037 59.8105 32.0037ZM70.0584 38.2441C70.4364 38.2441 70.743 37.9493 70.743 37.5857C70.743 37.2217 70.4364 36.9269 70.0584 36.9269C69.6802 36.9269 69.3735 37.2217 69.3735 37.5857C69.3735 37.9493 69.6802 38.2441 70.0584 38.2441ZM75.6143 30.8467C75.9926 30.8467 76.2992 30.5519 76.2992 30.1882C76.2992 29.8244 75.9926 29.5296 75.6143 29.5296C75.2363 29.5296 74.9297 29.8244 74.9297 30.1882C74.9297 30.5519 75.2363 30.8467 75.6143 30.8467ZM75.271 20.6155C75.6493 20.6155 75.9559 20.3206 75.9559 19.9569C75.9559 19.5932 75.6493 19.2983 75.271 19.2983C74.8931 19.2983 74.5865 19.5932 74.5865 19.9569C74.5865 20.3206 74.8931 20.6155 75.271 20.6155ZM70.0584 30.4011C70.4364 30.4011 70.743 30.1062 70.743 29.7425C70.743 29.3788 70.4364 29.0839 70.0584 29.0839C69.6802 29.0839 69.3735 29.3788 69.3735 29.7425C69.3735 30.1062 69.6802 30.4011 70.0584 30.4011Z" fill="black"/>
</svg>
