<svg width="12" height="11" viewBox="0 0 12 11" fill="none" xmlns="http://www.w3.org/2000/svg">
<path d="M8.80523 1.72828H8.34173V1.29651C8.34173 1.03745 8.15633 0.864746 7.87823 0.864746C7.60014 0.864746 7.41474 1.03745 7.41474 1.29651V1.72828H3.70676V1.29651C3.70676 1.03745 3.52136 0.864746 3.24327 0.864746C2.96517 0.864746 2.77977 1.03745 2.77977 1.29651V1.72828H2.31627C1.52833 1.72828 0.925781 2.28957 0.925781 3.02357V3.45533H10.1957V3.02357C10.1957 2.28957 9.59317 1.72828 8.80523 1.72828ZM0.925781 8.20475C0.925781 8.93875 1.52833 9.50004 2.31627 9.50004H8.80523C9.59317 9.50004 10.1957 8.93875 10.1957 8.20475V4.31886H0.925781V8.20475ZM7.87823 5.18239C8.15633 5.18239 8.34173 5.3551 8.34173 5.61416C8.34173 5.87322 8.15633 6.04592 7.87823 6.04592C7.60014 6.04592 7.41474 5.87322 7.41474 5.61416C7.41474 5.3551 7.60014 5.18239 7.87823 5.18239ZM7.87823 6.90945C8.15633 6.90945 8.34173 7.08216 8.34173 7.34122C8.34173 7.60028 8.15633 7.77298 7.87823 7.77298C7.60014 7.77298 7.41474 7.60028 7.41474 7.34122C7.41474 7.08216 7.60014 6.90945 7.87823 6.90945ZM5.56075 5.18239C5.83885 5.18239 6.02425 5.3551 6.02425 5.61416C6.02425 5.87322 5.83885 6.04592 5.56075 6.04592C5.28265 6.04592 5.09725 5.87322 5.09725 5.61416C5.09725 5.3551 5.28265 5.18239 5.56075 5.18239ZM5.56075 6.90945C5.83885 6.90945 6.02425 7.08216 6.02425 7.34122C6.02425 7.60028 5.83885 7.77298 5.56075 7.77298C5.28265 7.77298 5.09725 7.60028 5.09725 7.34122C5.09725 7.08216 5.28265 6.90945 5.56075 6.90945ZM3.24327 5.18239C3.52136 5.18239 3.70676 5.3551 3.70676 5.61416C3.70676 5.87322 3.52136 6.04592 3.24327 6.04592C2.96517 6.04592 2.77977 5.87322 2.77977 5.61416C2.77977 5.3551 2.96517 5.18239 3.24327 5.18239ZM3.24327 6.90945C3.52136 6.90945 3.70676 7.08216 3.70676 7.34122C3.70676 7.60028 3.52136 7.77298 3.24327 7.77298C2.96517 7.77298 2.77977 7.60028 2.77977 7.34122C2.77977 7.08216 2.96517 6.90945 3.24327 6.90945Z" fill="black"/>
</svg>
