<svg width="54" height="54" viewBox="0 0 54 54" fill="none" xmlns="http://www.w3.org/2000/svg">
<path d="M12.6562 32.9062H7.59375C7.12776 32.9062 6.75 33.284 6.75 33.75V50.625C6.75 51.091 7.12776 51.4688 7.59375 51.4688H12.6562C13.1222 51.4688 13.5 51.091 13.5 50.625V33.75C13.5 33.284 13.1222 32.9062 12.6562 32.9062Z" fill="#D4D4D4"/>
<path d="M22.7812 26.1562H17.7188C17.2528 26.1562 16.875 26.534 16.875 27V50.625C16.875 51.091 17.2528 51.4688 17.7188 51.4688H22.7812C23.2472 51.4688 23.625 51.091 23.625 50.625V27C23.625 26.534 23.2472 26.1562 22.7812 26.1562Z" fill="black"/>
<path d="M32.9062 16.0312H27.8438C27.3778 16.0312 27 16.409 27 16.875V50.625C27 51.091 27.3778 51.4688 27.8438 51.4688H32.9062C33.3722 51.4688 33.75 51.091 33.75 50.625V16.875C33.75 16.409 33.3722 16.0312 32.9062 16.0312Z" fill="#A2A6A9"/>
<path d="M43.0312 5.90625H37.9688C37.5028 5.90625 37.125 6.28401 37.125 6.75V50.625C37.125 51.091 37.5028 51.4688 37.9688 51.4688H43.0312C43.4972 51.4688 43.875 51.091 43.875 50.625V6.75C43.875 6.28401 43.4972 5.90625 43.0312 5.90625Z" fill="#C1092A"/>
<path d="M51.8494 49.8739L46.7869 47.3427L46.0275 48.8445L47.8922 49.7811H4.21969V6.1086L5.15625 7.97329L6.65812 7.21392L4.12687 2.15142C4.05607 2.01321 3.94849 1.89722 3.816 1.81623C3.6835 1.73524 3.53123 1.69238 3.37594 1.69238C3.22065 1.69238 3.06837 1.73524 2.93588 1.81623C2.80338 1.89722 2.69581 2.01321 2.625 2.15142L0.09375 7.21392L1.59562 7.97329L2.53219 6.1086V49.7811H1.68844V51.4686H2.53219V53.1561H4.21969V51.4686H47.8922L46.0275 52.4052L46.7869 53.907L51.8494 51.3758C51.9876 51.305 52.1036 51.1974 52.1846 51.0649C52.2656 50.9324 52.3084 50.7801 52.3084 50.6249C52.3084 50.4696 52.2656 50.3173 52.1846 50.1848C52.1036 50.0523 51.9876 49.9447 51.8494 49.8739Z" fill="#6F7475"/>
<path d="M24.8978 6.868C24.7637 6.78419 24.6088 6.73975 24.4506 6.73975C24.2925 6.73975 24.1375 6.78419 24.0034 6.868L19.4556 9.838L20.3837 11.2555L22.0122 10.1924C19.9163 13.0323 17.5109 15.6302 14.8403 17.938C12.9935 19.4954 10.9951 20.8635 8.875 22.0217L9.71875 23.5067C11.9366 22.2956 14.0258 20.8623 15.9541 19.2289C18.7106 16.8557 21.1926 14.1813 23.3538 11.2555L23.2019 13.0949L24.8894 13.2383L25.3113 7.66112C25.3236 7.50346 25.2914 7.34551 25.2183 7.20527C25.1452 7.06504 25.0341 6.94817 24.8978 6.868Z" fill="#C1092A"/>
</svg>
