<svg width="47" height="47" viewBox="0 0 47 47" fill="none" xmlns="http://www.w3.org/2000/svg">
<path d="M12.569 24.833C12.5561 24.9615 12.5387 25.0937 12.4689 25.201C12.4065 25.2973 12.3073 25.3635 12.2027 25.4103L11.293 23.188C11.8089 23.6185 12.6589 23.9168 12.6589 23.9168C12.6589 23.9168 12.6002 24.519 12.569 24.833Z" fill="white"/>
<path d="M28.4931 23.7362C26.6692 25.7924 24.8451 27.8496 23.0202 29.9058C22.8238 29.7774 22.6485 29.6782 22.4732 29.5781C22.3235 29.4927 22.173 29.4075 22.0298 29.311C21.4671 28.9328 21.0237 28.3967 20.4609 28.0194C22.1601 25.8328 23.896 23.8565 25.7815 21.7607C26.7362 22.3537 27.6439 23.0211 28.4931 23.7362Z" fill="#6F7475"/>
<path d="M24.5755 29.2835C22.8911 27.599 20.5503 26.6167 20.5503 26.6167L9.32812 39.9301C10.2488 41.3739 11.6524 42.5049 13.2589 43.0979C13.2589 43.0979 24.8079 29.5156 24.5755 29.2835ZM26.1811 5.64667C19.2357 10.1989 20.1619 19.7348 26.4721 23.995C32.7822 28.2553 43.3729 24.1437 43.3729 14.6299C43.3729 5.03071 32.6179 1.42768 26.1811 5.64667ZM27.705 22.0664C22.7167 18.6984 21.9841 11.16 27.4754 7.56156C32.5637 4.22658 41.066 7.07412 41.066 14.663C41.066 22.1839 32.6932 25.4345 27.705 22.0664Z" fill="black"/>
<path d="M26.7089 33.4007C26.6859 34.4115 26.7318 35.4231 26.8447 36.4283C27.3138 36.4033 27.7829 36.3777 28.2519 36.3529C28.2483 35.3303 28.2455 34.3068 28.2419 33.2841C27.7545 33.2934 27.267 33.3034 26.7089 33.4007ZM29.6923 30.9048C29.6693 32.7489 29.7152 34.5951 29.8281 36.4283C30.2972 36.3824 30.7663 36.3364 31.2353 36.2915C31.2317 34.4243 31.2289 32.5581 31.2253 30.691C30.7379 30.7093 30.2504 30.7267 29.6923 30.9048ZM32.6757 31.9669C32.6527 33.4568 32.6986 34.9484 32.8115 36.43C33.2806 36.3933 33.7497 36.3556 34.2187 36.3189C34.2151 34.8107 34.2123 33.3024 34.2087 31.7942C33.7213 31.8089 33.2338 31.8227 32.6757 31.9669ZM35.7509 28.9606C35.7279 31.4538 35.7738 33.9506 35.8868 36.4283C36.3558 36.3667 36.8249 36.3043 37.2939 36.2428C37.2903 33.7193 37.2875 31.1948 37.2839 28.6714C36.7965 28.6952 36.309 28.7201 35.7509 28.9606ZM38.9638 26.045C38.9408 29.4506 38.9867 33.0446 39.0997 36.43C39.5687 36.3455 40.0378 36.2611 40.5069 36.1767C40.5032 32.7287 40.5004 29.2808 40.4968 25.834C40.0093 25.8661 39.52 25.7871 38.9638 26.045Z" fill="white"/>
<path d="M25.4075 18.8837C25.9105 18.9553 26.4723 19.0186 26.9066 18.6946C27.1278 18.5293 27.2986 18.2998 27.472 18.0879C27.6566 17.861 27.8364 17.6307 28.0117 17.3974C28.3697 16.9201 28.7077 16.4272 29.0243 15.9213C29.0996 15.8011 29.1739 15.6799 29.2464 15.5579C29.3162 15.4404 29.3813 15.2962 29.5081 15.2292C29.6265 15.1659 29.7771 15.1622 29.9074 15.1439C30.0727 15.1209 30.2378 15.097 30.4031 15.0741C31.6654 14.896 32.9284 14.7253 34.1888 14.5389C34.2963 14.5233 34.4036 14.5004 34.488 14.4278C34.5853 14.3452 34.6367 14.2231 34.6928 14.1111C34.8369 13.8247 34.9811 13.5392 35.1252 13.2528C35.4133 12.6809 35.7016 12.109 35.9898 11.5372C36.1478 11.2241 36.3057 10.9111 36.4636 10.5972C36.6214 10.2832 36.7702 9.96101 36.94 9.65349C37.0271 9.4956 37.186 9.50569 37.3456 9.49008C37.5266 9.47265 37.7074 9.45521 37.8882 9.43868C38.2499 9.40379 38.6115 9.36983 38.9742 9.33495C39.0907 9.32394 39.0926 9.14034 38.9751 9.15136C38.6583 9.18165 38.3417 9.21194 38.0249 9.24224C37.7238 9.27069 37.4172 9.28538 37.118 9.33036C36.8289 9.37351 36.7509 9.6186 36.6325 9.85269C36.4884 10.1391 36.3442 10.4246 36.2001 10.711C35.6309 11.841 35.0672 12.9747 34.4918 14.102C34.433 14.2167 34.377 14.3113 34.2447 14.3434C34.0943 14.3801 33.9345 14.3902 33.7812 14.4122C33.4655 14.4572 33.1506 14.5013 32.8347 14.5463C32.2041 14.6353 31.5726 14.7243 30.9419 14.8143C30.6336 14.8575 30.326 14.9015 30.0175 14.9447C29.7697 14.9795 29.4695 14.9777 29.284 15.1723C29.2024 15.2586 29.1463 15.366 29.0859 15.467C29.006 15.601 28.9243 15.7341 28.8407 15.8673C28.682 16.1197 28.5176 16.3694 28.3487 16.6153C27.9668 17.1698 27.5593 17.7068 27.1241 18.2199C26.9221 18.4587 26.7083 18.6588 26.3943 18.7285C26.0868 18.7965 25.7619 18.7524 25.4534 18.7083C25.3387 18.6899 25.29 18.8671 25.4075 18.8837ZM29.117 12.334C29.303 12.334 29.4539 12.1889 29.4539 12.0099C29.4539 11.831 29.303 11.6859 29.117 11.6859C28.9309 11.6859 28.78 11.831 28.78 12.0099C28.78 12.1889 28.9309 12.334 29.117 12.334ZM26.4007 16.4814C26.5869 16.4814 26.7376 16.3362 26.7376 16.1573C26.7376 15.9783 26.5869 15.8333 26.4007 15.8333C26.2146 15.8333 26.0639 15.9783 26.0639 16.1573C26.0639 16.3362 26.2146 16.4814 26.4007 16.4814Z" fill="black"/>
<path d="M26.7353 19.1421C26.9214 19.1421 27.0723 18.997 27.0723 18.8181C27.0723 18.639 26.9214 18.494 26.7353 18.494C26.5493 18.494 26.3984 18.639 26.3984 18.8181C26.3984 18.997 26.5493 19.1421 26.7353 19.1421ZM29.3516 15.4932C29.5376 15.4932 29.6884 15.3481 29.6884 15.1691C29.6884 14.9901 29.5376 14.8451 29.3516 14.8451C29.1655 14.8451 29.0146 14.9901 29.0146 15.1691C29.0146 15.3481 29.1655 15.4932 29.3516 15.4932ZM34.3939 18.5637C34.5799 18.5637 34.7308 18.4186 34.7308 18.2397C34.7308 18.0606 34.5799 17.9155 34.3939 17.9155C34.2078 17.9155 34.0569 18.0606 34.0569 18.2397C34.0569 18.4186 34.2078 18.5637 34.3939 18.5637ZM37.1276 14.9239C37.3137 14.9239 37.4646 14.7788 37.4646 14.5999C37.4646 14.4209 37.3137 14.2758 37.1276 14.2758C36.9416 14.2758 36.7908 14.4209 36.7908 14.5999C36.7908 14.7788 36.9416 14.9239 37.1276 14.9239ZM36.9587 9.88978C37.1448 9.88978 37.2957 9.74471 37.2957 9.56575C37.2957 9.38677 37.1448 9.2417 36.9587 9.2417C36.7727 9.2417 36.6219 9.38677 36.6219 9.56575C36.6219 9.74471 36.7727 9.88978 36.9587 9.88978ZM34.3939 14.7046C34.5799 14.7046 34.7308 14.5596 34.7308 14.3806C34.7308 14.2016 34.5799 14.0566 34.3939 14.0566C34.2078 14.0566 34.0569 14.2016 34.0569 14.3806C34.0569 14.5596 34.2078 14.7046 34.3939 14.7046Z" fill="black"/>
</svg>
