<svg width="464" height="187" viewBox="0 0 464 187" fill="none" xmlns="http://www.w3.org/2000/svg">
<g clip-path="url(#clip0_1568_32)">
<path d="M195.396 19.0801V69.9601H308.036C290.276 49.1601 251.316 20.4401 195.396 19.0801ZM319.316 71.6402C303.476 49.1602 258.676 11.2402 191.396 11.1602C190.356 11.1602 189.396 11.5602 188.596 12.2802C187.876 13.0802 187.476 14.0401 187.476 15.0801V73.8802C187.476 76.0402 189.236 77.8001 191.396 77.8001H316.116C317.556 77.8001 318.916 77.0002 319.636 75.7202C320.276 74.3602 320.196 72.8402 319.316 71.6402ZM385.716 133.8C375.876 133.8 367.956 141.72 367.956 151.56C367.956 161.32 375.876 169.24 385.716 169.24C395.476 169.24 403.396 161.32 403.396 151.56C403.396 141.72 395.476 133.8 385.716 133.8ZM385.716 161.4C380.276 161.4 375.796 157 375.796 151.56C375.796 146.12 380.276 141.64 385.716 141.64C391.076 141.64 395.556 146.12 395.556 151.56C395.556 157 391.076 161.4 385.716 161.4ZM73.7964 133.8C64.0364 133.8 56.1164 141.72 56.1164 151.56C56.1164 161.32 64.0364 169.24 73.7964 169.24C83.6364 169.24 91.5564 161.32 91.5564 151.56C91.5564 141.72 83.6364 133.8 73.7964 133.8ZM73.7964 161.4C68.3564 161.4 63.9564 157 63.9564 151.56C63.9564 146.12 68.3564 141.64 73.7964 141.64C79.2364 141.64 83.6364 146.12 83.6364 151.56C83.6364 157 79.2364 161.4 73.7964 161.4ZM81.6364 58.0402C76.7564 62.2002 72.0364 66.2001 67.2364 69.9601H169.796V19.2401C124.516 21.3201 102.676 39.9602 81.6364 58.0402ZM176.516 12.3601C175.716 11.6401 174.436 11.1601 173.636 11.2401C122.756 12.3601 98.1964 33.4802 76.5164 52.0402C68.5164 58.9202 60.9964 65.4001 52.5164 70.5201C50.9964 71.4801 50.3564 73.2402 50.8364 74.9202C51.3164 76.6802 52.8364 77.8001 54.5964 77.8001H173.716C175.876 77.8001 177.636 76.0402 177.636 73.8802V15.1602C177.636 14.1202 177.236 13.0801 176.516 12.3601Z" fill="black"/>
<path d="M420.999 151.399C420.919 131.959 405.079 116.199 385.719 116.199C366.199 116.199 350.359 132.039 350.359 151.559C350.359 170.999 366.199 186.839 385.719 186.839C405.159 186.839 420.999 170.999 420.999 151.559C420.999 151.479 420.919 151.479 420.919 151.399H420.999ZM385.719 169.239C375.879 169.239 367.959 161.319 367.959 151.559C367.959 141.719 375.879 133.799 385.719 133.799C395.479 133.799 403.399 141.719 403.399 151.559C403.399 161.319 395.479 169.239 385.719 169.239Z" fill="black"/>
<path d="M462.442 123.002C462.362 121.562 462.202 120.202 462.042 118.842L448.202 115.402C436.042 112.282 428.442 103.082 429.642 92.9216L430.122 88.7616C387.722 78.2016 344.282 74.1216 343.802 74.0416C342.922 73.9616 342.042 73.5616 341.402 72.9216C339.402 71.0016 337.322 68.8416 335.082 66.6016C309.162 40.0416 265.802 -4.35845 166.762 0.601552C115.162 3.16155 93.1619 21.0016 69.8819 39.8815C52.4419 54.0415 34.4419 68.7616 3.40187 77.6416C2.12187 78.0416 1.00187 79.4816 1.00187 80.6016V84.3615H6.52188C15.8819 84.3615 23.4819 91.9616 23.4819 101.322C23.4819 110.682 15.8819 118.282 6.52188 118.282H0.921875V119.722C0.921875 132.442 4.44188 147.562 21.3219 147.562H31.0819C33.0819 125.642 51.4019 108.362 73.8019 108.362C96.2819 108.362 114.602 125.642 116.602 147.562L342.922 147.482C345.002 125.642 363.242 108.362 385.722 108.362C408.122 108.362 426.362 125.562 428.442 147.482L449.402 147.402C453.242 147.402 457.322 145.642 460.042 142.762C462.202 140.522 463.322 137.802 463.162 135.162L462.442 123.002ZM177.642 73.8816C177.642 76.0416 175.882 77.8015 173.722 77.8015H54.6019C52.8419 77.8015 51.3219 76.6816 50.8419 74.9216C50.3619 73.2416 51.0019 71.4815 52.5219 70.5215C61.0019 65.4015 68.5219 58.9216 76.5219 52.0416C98.2019 33.4816 122.762 12.3615 173.642 11.2415C174.442 11.1615 175.722 11.6415 176.522 12.3615C177.242 13.0815 177.642 14.1215 177.642 15.1615V73.8816ZM319.642 75.7215C318.922 77.0015 317.562 77.8015 316.122 77.8015H191.402C189.242 77.8015 187.482 76.0416 187.482 73.8816V15.0815C187.482 14.0415 187.882 13.0815 188.602 12.2815C189.402 11.5615 190.362 11.1615 191.402 11.1615C258.682 11.2415 303.482 49.1616 319.322 71.6416C320.202 72.8416 320.282 74.3615 319.642 75.7215Z" fill="white"/>
<path d="M460.517 110.36L450.117 107.8C441.957 105.64 436.757 99.9597 437.397 93.8797L437.797 90.6797C439.237 91.0797 440.677 91.4797 442.037 91.8797C452.997 94.9197 458.037 101.4 460.517 110.36Z" fill="#FBF8F8"/>
<path d="M15.5619 101.319C15.5619 106.279 11.4819 110.359 6.52188 110.359H0.921875V92.1992H6.52188C11.4819 92.1992 15.5619 96.2792 15.5619 101.319Z" fill="#B3B3B3"/>
<path d="M73.8034 116.199C54.3634 116.199 38.6034 132.039 38.5234 151.399C38.5234 151.479 38.5234 151.479 38.5234 151.479C38.5234 151.559 38.5234 151.559 38.5234 151.639C38.6034 170.999 54.3634 186.839 73.8034 186.839C93.3234 186.839 109.083 170.999 109.083 151.559C109.083 132.039 93.3234 116.199 73.8034 116.199ZM73.8034 169.239C64.0434 169.239 56.1234 161.319 56.1234 151.559C56.1234 141.719 64.0434 133.799 73.8034 133.799C83.6434 133.799 91.5634 141.719 91.5634 151.559C91.5634 161.319 83.6434 169.239 73.8034 169.239Z" fill="black"/>
<path d="M83.6409 151.561C83.6409 157.001 79.2409 161.401 73.8009 161.401C68.3609 161.401 63.9609 157.001 63.9609 151.561C63.9609 146.121 68.3609 141.641 73.8009 141.641C79.2409 141.641 83.6409 146.121 83.6409 151.561Z" fill="#FBF8F8"/>
<path d="M421.003 151.399C420.923 131.959 405.083 116.199 385.723 116.199C366.203 116.199 350.363 132.039 350.363 151.559C350.363 170.999 366.203 186.839 385.723 186.839C405.163 186.839 421.003 170.999 421.003 151.559C421.003 151.479 420.923 151.479 420.923 151.399H421.003ZM412.203 151.559C412.203 166.119 400.283 178.039 385.723 178.039C371.083 178.039 359.163 166.119 359.163 151.559C359.163 136.919 371.083 124.999 385.723 124.999C400.203 124.999 412.123 136.839 412.203 151.399H412.123C412.123 151.479 412.203 151.479 412.203 151.559ZM109.163 151.399C109.083 131.959 93.2434 116.199 73.8834 116.199C54.3634 116.199 38.5234 132.039 38.5234 151.559C38.5234 170.999 54.3634 186.839 73.8834 186.839C93.3234 186.839 109.163 170.999 109.163 151.559C109.163 151.479 109.083 151.479 109.083 151.399H109.163ZM100.363 151.559C100.363 166.119 88.4434 178.039 73.8834 178.039C59.2434 178.039 47.3234 166.119 47.3234 151.559C47.3234 136.919 59.2434 124.999 73.8834 124.999C88.3634 124.999 100.283 136.839 100.363 151.399H100.283C100.283 151.479 100.363 151.479 100.363 151.559Z" fill="black"/>
<path d="M395.557 151.561C395.557 157.001 391.077 161.401 385.717 161.401C380.277 161.401 375.797 157.001 375.797 151.561C375.797 146.121 380.277 141.641 385.717 141.641C391.077 141.641 395.557 146.121 395.557 151.561Z" fill="#FBF8F8"/>
<path d="M463.162 135.161C463.322 137.801 462.202 140.521 460.042 142.761C457.322 145.641 453.242 147.401 449.402 147.401L428.442 147.481C427.722 140.281 425.322 133.641 421.562 127.881H449.402C453.242 127.881 457.322 126.121 460.042 123.241C460.922 122.281 461.722 121.241 462.202 120.121C462.282 121.081 462.362 122.041 462.442 123.001L463.162 135.161ZM37.8819 128.041C34.1219 133.721 31.7219 140.441 31.0819 147.561H21.3219C4.44188 147.561 0.921875 132.441 0.921875 119.721V118.281H4.52188C7.40188 123.961 12.6019 128.041 21.3219 128.041H37.8819ZM349.802 127.881C346.042 133.641 343.642 140.281 342.922 147.481L116.602 147.561C115.962 140.361 113.562 133.641 109.722 127.961H116.602V128.041L342.922 127.961V127.881H349.802Z" fill="white"/>
<path d="M429.72 97.9615C387.48 87.4815 344.28 83.4016 343.8 83.3216C342.92 83.2416 342.04 82.8416 341.4 82.2016C339.4 80.2816 337.32 78.1216 335.08 75.8816C309.16 49.3216 265.8 4.92155 166.76 9.88155C115.16 12.4416 93.16 30.2815 69.88 49.1615C53.72 62.2815 37.16 75.8016 10.2 84.7616C9 84.5216 7.8 84.3615 6.52 84.3615H1V80.6016C1 79.4816 2.12 78.0416 3.4 77.6416C34.44 68.7616 52.44 54.0415 69.88 39.8815C93.16 21.0016 115.16 3.16155 166.76 0.601552C265.8 -4.35845 309.16 40.0416 335.08 66.6016C337.32 68.8416 339.4 71.0016 341.4 72.9216C342.04 73.5616 342.92 73.9616 343.8 74.0416C344.28 74.1216 387.72 78.2016 430.12 88.7616L429.64 92.9216C429.4 94.6016 429.48 96.3615 429.72 97.9615Z" fill="white"/>
<path d="M169.802 19.2381V69.9581H67.2422C72.0422 66.1981 76.7622 62.1981 81.6422 58.0381C94.8422 46.6781 108.362 35.1582 127.802 27.6382C129.962 26.7582 132.202 25.9581 134.522 25.2381C144.522 22.0381 156.122 19.8781 169.802 19.2381ZM308.042 69.9581H195.402V19.0781C203.002 19.2381 210.202 19.9581 217.162 20.9981C220.042 21.4781 222.922 22.0381 225.722 22.5981C265.562 31.1581 293.722 53.1581 308.042 69.9581Z" fill="#FBF8F8"/>
<path d="M155.397 69.9583H147.637L127.797 27.6383C129.957 26.7583 132.197 25.9583 134.517 25.2383L155.397 69.9583Z" fill="#BDBDBD"/>
<path d="M247.876 69.96H240.036L217.156 21C220.036 21.48 222.916 22.04 225.716 22.6L247.876 69.96Z" fill="#BDBDBD"/>
</g>
<defs>
<clipPath id="clip0_1568_32">
<rect width="464" height="187" fill="white"/>
</clipPath>
</defs>
</svg>
