<svg width="650" height="512" viewBox="0 0 650 512" fill="none" xmlns="http://www.w3.org/2000/svg">
<path d="M169.211 101.775H511.118C514.322 101.775 517.394 103.048 519.659 105.313C521.924 107.578 523.197 110.65 523.197 113.854V132.045L523.183 132.644C523.035 135.63 521.783 138.463 519.659 140.587C517.394 142.852 514.322 144.124 511.118 144.124H509.66L509.314 144.129C507.583 144.172 505.874 144.533 504.272 145.197C502.564 145.904 501.012 146.941 499.705 148.248C498.398 149.556 497.36 151.109 496.652 152.817C495.945 154.525 495.581 156.356 495.581 158.204V176.396L495.585 176.742C495.628 178.472 495.989 180.182 496.652 181.784C497.36 183.492 498.398 185.043 499.705 186.351C501.012 187.658 502.564 188.695 504.272 189.403C505.874 190.066 507.583 190.428 509.314 190.471L509.66 190.475H555.826C559.03 190.475 562.103 191.748 564.368 194.013C566.633 196.278 567.906 199.351 567.906 202.554V220.745L567.892 221.344C567.744 224.33 566.492 227.163 564.368 229.286C562.103 231.552 559.03 232.825 555.826 232.825H525.428L525.081 232.829C523.35 232.872 521.641 233.234 520.04 233.897C518.332 234.604 516.779 235.641 515.472 236.949C514.164 238.256 513.127 239.808 512.42 241.516C511.712 243.224 511.349 245.056 511.349 246.905V265.096L511.353 265.442C511.395 267.173 511.757 268.882 512.42 270.484C513.127 272.192 514.164 273.744 515.472 275.051C516.779 276.358 518.332 277.396 520.04 278.104C521.641 278.767 523.35 279.129 525.081 279.171L525.428 279.175H533.539C536.743 279.175 539.816 280.448 542.081 282.713C544.346 284.978 545.619 288.051 545.619 291.254V309.446L545.604 310.039C545.536 311.423 545.23 312.786 544.699 314.069C544.092 315.534 543.202 316.865 542.081 317.987C540.959 319.108 539.628 319.999 538.162 320.606C536.697 321.213 535.125 321.525 533.539 321.525H506.8C503.066 321.525 499.484 323.008 496.844 325.649C494.203 328.289 492.72 331.871 492.72 335.605V353.796C492.72 357.53 494.204 361.111 496.844 363.751C499.484 366.392 503.066 367.875 506.8 367.875H518.14C521.343 367.875 524.416 369.148 526.682 371.413C528.947 373.679 530.22 376.751 530.22 379.954V398.146C530.22 401.349 528.947 404.422 526.682 406.687C524.416 408.952 521.343 410.225 518.14 410.225H94.1768L93.5781 410.21C90.5925 410.062 87.7595 408.811 85.6357 406.687C83.3705 404.422 82.0977 401.349 82.0977 398.146V379.954C82.0977 376.751 83.3705 373.679 85.6357 371.413C87.901 369.148 90.9732 367.875 94.1768 367.875H141.302C145.036 367.875 148.616 366.392 151.257 363.751C153.897 361.111 155.381 357.53 155.381 353.796V335.605C155.381 331.871 153.897 328.289 151.257 325.649C148.616 323.009 145.036 321.525 141.302 321.525H138.431L137.836 321.51C136.453 321.442 135.09 321.137 133.808 320.606C132.342 319.999 131.01 319.108 129.889 317.987C128.767 316.865 127.878 315.534 127.271 314.069C126.663 312.603 126.351 311.032 126.351 309.446V291.254L126.365 290.656C126.513 287.67 127.765 284.837 129.889 282.713C132.012 280.589 134.846 279.338 137.831 279.19L138.431 279.175H138.479C140.327 279.175 142.158 278.811 143.866 278.104C145.574 277.396 147.126 276.358 148.434 275.051C149.741 273.744 150.779 272.192 151.486 270.484C152.194 268.776 152.558 266.945 152.558 265.096V246.905L152.554 246.558C152.511 244.827 152.15 243.117 151.486 241.516C150.779 239.808 149.741 238.256 148.434 236.949C147.126 235.641 145.574 234.604 143.866 233.897C142.158 233.189 140.327 232.825 138.479 232.825H118.632L118.032 232.81C115.047 232.662 112.214 231.41 110.09 229.286C107.825 227.021 106.552 223.949 106.552 220.745V202.554C106.552 199.351 107.825 196.278 110.09 194.013C112.214 191.889 115.047 190.638 118.032 190.49L118.632 190.475H169.211C172.945 190.475 176.527 188.991 179.167 186.351C181.807 183.711 183.29 180.13 183.29 176.396V158.204C183.29 154.47 181.807 150.889 179.167 148.248C176.609 145.69 173.168 144.219 169.561 144.129L169.211 144.124C166.007 144.124 162.935 142.852 160.67 140.587C158.405 138.322 157.132 135.249 157.132 132.045V113.854C157.132 110.65 158.405 107.578 160.67 105.313C162.935 103.048 166.007 101.775 169.211 101.775Z" fill="#F5F5F5" stroke="black" stroke-width="2"/>
<path d="M377.402 231.797H217.562V377.237H377.402V231.797Z" fill="black"/>
<path d="M462.362 231.797H377.402V377.237H462.362V231.797Z" fill="#6B7280"/>
<path d="M462.362 232.157H377.402L406.503 192.464C406.782 192.083 407.146 191.774 407.567 191.561C407.987 191.348 408.452 191.237 408.923 191.237H486.443C486.997 191.237 487.541 191.391 488.013 191.681C488.486 191.971 488.868 192.387 489.119 192.881C489.37 193.376 489.478 193.93 489.433 194.482C489.388 195.035 489.19 195.564 488.862 196.011L462.362 232.157Z" fill="#571519"/>
<path d="M217.956 232.157H302.916L273.815 192.464C273.536 192.083 273.172 191.774 272.751 191.561C272.331 191.348 271.867 191.237 271.395 191.237H193.875C193.321 191.237 192.777 191.391 192.305 191.681C191.832 191.971 191.45 192.387 191.199 192.881C190.948 193.376 190.84 193.93 190.885 194.482C190.93 195.035 191.128 195.564 191.456 196.011L217.956 232.157Z" fill="#6B7280"/>
<path d="M510.291 285.158L462.359 232.157V290.117H508.02C508.594 290.117 509.157 289.952 509.64 289.642C510.124 289.332 510.508 288.889 510.747 288.367C510.986 287.844 511.07 287.264 510.99 286.695C510.909 286.126 510.666 285.593 510.291 285.158Z" fill="#571519"/>
<path d="M357.748 153.791H246.895V232.157H357.748V153.791Z" fill="#C1092A"/>
<path d="M299.078 236.995H268.58C267.992 236.995 267.413 236.84 266.904 236.546C266.394 236.251 265.97 235.828 265.676 235.318C265.382 234.808 265.227 234.23 265.227 233.641C265.227 233.052 265.382 232.474 265.676 231.964L280.925 205.552L296.174 179.14C296.468 178.63 296.892 178.207 297.402 177.912C297.911 177.618 298.49 177.463 299.078 177.463C299.667 177.463 300.246 177.618 300.755 177.912C301.265 178.207 301.689 178.63 301.983 179.14L317.232 205.552L332.481 231.964C332.775 232.474 332.93 233.052 332.93 233.641C332.93 234.23 332.775 234.808 332.481 235.318C332.187 235.828 331.763 236.251 331.253 236.546C330.744 236.84 330.165 236.995 329.576 236.995H299.078Z" fill="#F5F5F5"/>
<path d="M300.758 193.979C300.758 193.052 300.007 192.301 299.08 192.301C298.154 192.301 297.402 193.052 297.402 193.979V218.991C297.402 219.918 298.154 220.669 299.08 220.669C300.007 220.669 300.758 219.918 300.758 218.991V193.979Z" fill="black"/>
<path d="M303.076 227.631C303.294 225.424 301.683 223.459 299.477 223.241C297.271 223.022 295.305 224.633 295.087 226.839C294.868 229.046 296.48 231.011 298.686 231.229C300.892 231.448 302.857 229.837 303.076 227.631Z" fill="black"/>
<path d="M325.666 290.117H173.75C173.175 290.117 172.613 289.952 172.129 289.642C171.646 289.332 171.262 288.889 171.022 288.367C170.783 287.844 170.699 287.264 170.78 286.695C170.861 286.126 171.103 285.593 171.478 285.158L217.2 232.157H377.04L327.938 289.077C327.656 289.403 327.307 289.665 326.915 289.845C326.523 290.024 326.097 290.117 325.666 290.117Z" fill="#571519"/>
<path d="M474.287 338.334C478.077 338.334 478.077 340.334 481.866 340.334C485.655 340.334 485.655 338.334 489.443 338.334C493.234 338.334 493.234 340.334 497.026 340.334C500.817 340.334 500.817 338.334 504.608 338.334M474.287 347.074C478.077 347.074 478.077 349.074 481.866 349.074C485.655 349.074 485.655 347.074 489.443 347.074C493.234 347.074 493.234 349.074 497.026 349.074C500.817 349.074 500.817 347.074 504.608 347.074M474.287 355.813C478.077 355.813 478.077 357.813 481.866 357.813C485.655 357.813 485.655 355.813 489.443 355.813C493.234 355.813 493.234 357.813 497.026 357.813C500.817 357.813 500.817 355.813 504.608 355.813M111.184 292.117C114.973 292.117 114.973 294.117 118.763 294.117C122.551 294.117 122.551 292.117 126.34 292.117C130.131 292.117 130.131 294.117 133.922 294.117C137.713 294.117 137.713 292.117 141.504 292.117M111.184 300.857C114.973 300.857 114.973 302.857 118.763 302.857C122.551 302.857 122.551 300.857 126.34 300.857C130.131 300.857 130.131 302.857 133.922 302.857C137.713 302.857 137.713 300.857 141.504 300.857M111.184 309.596C114.973 309.596 114.973 311.596 118.763 311.596C122.551 311.596 122.551 309.596 126.34 309.596C130.131 309.596 130.131 311.596 133.922 311.596C137.713 311.596 137.713 309.596 141.504 309.596M279.905 120.543C283.695 120.543 283.695 122.543 287.485 122.543C291.273 122.543 291.273 120.543 295.062 120.543C298.853 120.543 298.853 122.543 302.644 122.543C306.435 122.543 306.435 120.543 310.226 120.543M279.905 129.282C283.695 129.282 283.695 131.282 287.485 131.282C291.273 131.282 291.273 129.282 295.062 129.282C298.853 129.282 298.853 131.282 302.644 131.282C306.435 131.282 306.435 129.282 310.226 129.282M279.905 138.022C283.695 138.022 283.695 140.022 287.485 140.022C291.273 140.022 291.273 138.022 295.062 138.022C298.853 138.022 298.853 140.022 302.644 140.022C306.435 140.022 306.435 138.022 310.226 138.022" stroke="#CACACA" stroke-width="3" stroke-miterlimit="10" stroke-linecap="round"/>
<path d="M183.706 404.17C190.864 404.17 196.666 398.368 196.666 391.21C196.666 384.052 190.864 378.25 183.706 378.25C176.548 378.25 170.746 384.052 170.746 391.21C170.746 398.368 176.548 404.17 183.706 404.17Z" fill="#CACACA"/>
<path d="M193.111 363.744C196.822 363.744 199.831 360.735 199.831 357.024C199.831 353.313 196.822 350.304 193.111 350.304C189.399 350.304 186.391 353.313 186.391 357.024C186.391 360.735 189.399 363.744 193.111 363.744Z" fill="#CACACA"/>
<path d="M219.721 402.25C225.023 402.25 229.321 397.952 229.321 392.65C229.321 387.348 225.023 383.05 219.721 383.05C214.419 383.05 210.121 387.348 210.121 392.65C210.121 397.952 214.419 402.25 219.721 402.25Z" fill="#CACACA"/>
<path d="M170.971 228.121C179.487 228.121 186.391 221.217 186.391 212.701C186.391 204.185 179.487 197.281 170.971 197.281C162.455 197.281 155.551 204.185 155.551 212.701C155.551 221.217 162.455 228.121 170.971 228.121Z" fill="#CACACA"/>
<path d="M141.505 209.75C145.941 209.75 149.537 206.154 149.537 201.718C149.537 197.282 145.941 193.686 141.505 193.686C137.069 193.686 133.473 197.282 133.473 201.718C133.473 206.154 137.069 209.75 141.505 209.75Z" fill="#CACACA"/>
<path d="M148.883 179.048C151.442 179.048 153.516 176.974 153.516 174.415C153.516 171.856 151.442 169.782 148.883 169.782C146.324 169.782 144.25 171.856 144.25 174.415C144.25 176.974 146.324 179.048 148.883 179.048Z" fill="#CACACA"/>
<path d="M174.529 188.8C180.663 188.8 185.636 183.827 185.636 177.693C185.636 171.559 180.663 166.586 174.529 166.586C168.395 166.586 163.422 171.559 163.422 177.693C163.422 183.827 168.395 188.8 174.529 188.8Z" fill="#CACACA"/>
<path d="M438.986 153.337C447.503 153.337 454.406 146.433 454.406 137.917C454.406 129.401 447.503 122.497 438.986 122.497C430.47 122.497 423.566 129.401 423.566 137.917C423.566 146.433 430.47 153.337 438.986 153.337Z" fill="#CACACA"/>
<path d="M463.524 126.281C467.96 126.281 471.556 122.685 471.556 118.249C471.556 113.813 467.96 110.217 463.524 110.217C459.088 110.217 455.492 113.813 455.492 118.249C455.492 122.685 459.088 126.281 463.524 126.281Z" fill="#CACACA"/>
<path d="M494.206 169.275C498.045 169.275 501.158 166.162 501.158 162.323C501.158 158.483 498.045 155.371 494.206 155.371C490.366 155.371 487.254 158.483 487.254 162.323C487.254 166.162 490.366 169.275 494.206 169.275Z" fill="#CACACA"/>
<path d="M483.184 143.213C485.743 143.213 487.817 141.139 487.817 138.58C487.817 136.021 485.743 133.947 483.184 133.947C480.625 133.947 478.551 136.021 478.551 138.58C478.551 141.139 480.625 143.213 483.184 143.213Z" fill="#CACACA"/>
<path d="M467.22 170.027C473.355 170.027 478.327 165.054 478.327 158.92C478.327 152.786 473.355 147.813 467.22 147.813C461.086 147.813 456.113 152.786 456.113 158.92C456.113 165.054 461.086 170.027 467.22 170.027Z" fill="#CACACA"/>
</svg>
