<svg width="12" height="12" viewBox="0 0 12 12" fill="none" xmlns="http://www.w3.org/2000/svg">
<g clip-path="url(#clip0_602_897)">
<path d="M6.09924 2.45068C4.58208 2.45068 3.34766 3.6851 3.34766 5.20209C3.34766 6.71908 4.58208 7.9535 6.09924 7.9535C7.6164 7.9535 8.85065 6.71908 8.85065 5.20209C8.85065 3.6851 7.6164 2.45068 6.09924 2.45068ZM6.09924 7.60573C4.7737 7.60573 3.69543 6.52746 3.69543 5.20209C3.69543 3.87673 4.7737 2.79846 6.09924 2.79846C7.4246 2.79846 8.50287 3.87673 8.50287 5.20209C8.50287 6.52746 7.4246 7.60573 6.09924 7.60573Z" fill="black"/>
<path d="M10.7412 9.83298L8.56138 7.65313C9.18737 7.02384 9.57496 6.15736 9.57496 5.20185C9.57496 3.28423 8.01485 1.72412 6.09723 1.72412C4.17961 1.72412 2.6195 3.28423 2.6195 5.20185C2.6195 6.15736 3.00709 7.02384 3.63309 7.65313L1.45324 9.83298C1.40108 9.88514 1.38751 9.96461 1.41951 10.0312C1.45151 10.098 1.52297 10.1369 1.59531 10.1289L2.48561 10.031L2.38771 10.9213C2.37971 10.9947 2.41884 11.0651 2.48543 11.0971C2.50926 11.1084 2.53482 11.114 2.56038 11.114C2.60559 11.114 2.65011 11.0964 2.68349 11.063L5.19094 8.5556C5.48028 8.63403 5.78319 8.67958 6.09723 8.67958C6.41127 8.67958 6.71418 8.63403 7.0037 8.5556L9.51115 11.063C9.54436 11.0964 9.58888 11.114 9.63409 11.114C9.65947 11.114 9.68538 11.1084 9.70938 11.0968C9.77598 11.0648 9.81493 10.9944 9.8071 10.921L9.70921 10.0307L10.5995 10.1286C10.6746 10.1368 10.7433 10.0975 10.7753 10.0309C10.8073 9.96426 10.7934 9.88514 10.7412 9.83298ZM2.7873 10.4671L2.85494 9.85315C2.86068 9.80063 2.84242 9.74847 2.80504 9.71125C2.76783 9.67404 2.71583 9.65561 2.66315 9.66135L2.04915 9.72882L3.89044 7.88753C4.16761 8.11567 4.48183 8.29929 4.82091 8.43371L2.7873 10.4671ZM2.96727 5.20185C2.96727 3.47603 4.37141 2.07189 6.09723 2.07189C7.82306 2.07189 9.22719 3.47603 9.22719 5.20185C9.22719 6.92768 7.82306 8.33181 6.09723 8.33181C4.37141 8.33181 2.96727 6.92768 2.96727 5.20185ZM9.53132 9.66135C9.4795 9.65561 9.42664 9.67404 9.38943 9.71125C9.35204 9.74864 9.33378 9.80081 9.33952 9.85315L9.40716 10.4671L7.37356 8.43371C7.71264 8.29929 8.02685 8.11567 8.30403 7.88753L10.1453 9.72882L9.53132 9.66135Z" fill="black"/>
<path d="M7.51204 4.7201L6.64087 4.59525L6.25171 3.81815C6.22232 3.75938 6.16198 3.72217 6.09626 3.72217C6.03053 3.72217 5.97019 3.75938 5.9408 3.81833L5.55164 4.59543L4.68047 4.72028C4.61474 4.72984 4.55997 4.77575 4.53962 4.83922C4.51928 4.90268 4.53667 4.97189 4.58466 5.0178L5.21361 5.62223L5.06511 6.47462C5.0538 6.53983 5.08041 6.60573 5.13362 6.64485C5.18683 6.68398 5.25795 6.68937 5.31637 6.65894L6.09626 6.25465L6.87596 6.65876C6.90118 6.67181 6.92865 6.67824 6.95595 6.67824C6.99229 6.67824 7.02829 6.66694 7.05872 6.64468C7.1121 6.60556 7.13871 6.53965 7.1274 6.47445L6.9789 5.62205L7.60785 5.01762C7.65567 4.97154 7.67323 4.90234 7.65289 4.83904C7.63254 4.77575 7.57794 4.72967 7.51204 4.7201ZM6.6713 5.43547C6.62974 5.47547 6.61061 5.53354 6.62052 5.59075L6.72468 6.18858L6.17624 5.90444C6.1512 5.8914 6.12373 5.88497 6.09626 5.88497C6.06878 5.88497 6.04131 5.8914 6.01627 5.90444L5.468 6.18858L5.57216 5.59075C5.58207 5.53372 5.56295 5.47564 5.52139 5.43547L5.08284 5.01397L5.69127 4.92685C5.74779 4.91868 5.79665 4.88356 5.82204 4.83243L6.09626 4.28452L6.37047 4.83243C6.39604 4.88356 6.4449 4.91868 6.50141 4.92685L7.10984 5.01397L6.6713 5.43547Z" fill="#C1092A"/>
<path d="M6.09645 3.91504L6.40877 4.87626H7.41945L6.80574 5.47033L6.91411 6.43155L6.0957 5.95549L5.27878 6.43155L5.4074 5.47033L4.77344 4.87626H5.78413L6.09645 3.91504Z" fill="#C1092A"/>
</g>
<defs>
<clipPath id="clip0_602_897">
<rect width="11.1287" height="11.1287" fill="white" transform="translate(0.53125 0.85498)"/>
</clipPath>
</defs>
</svg>
