<svg width="6" height="10" viewBox="0 0 6 10" fill="none" xmlns="http://www.w3.org/2000/svg">
<path d="M5.71875 7.37366C5.68878 8.13524 5.66538 8.54587 5.12245 9.08078C4.57952 9.61568 3.85328 9.92376 3.09134 9.94239C2.3294 9.96101 1.58897 9.68879 1.02055 9.18106C0.452134 8.67332 0.0983976 7.96818 0.03125 7.20898L2.14289 7.37318C2.16553 7.62917 2.15289 7.52763 2.34455 7.69882C2.5362 7.87002 2.78586 7.9618 3.04277 7.95552C3.29967 7.94924 3.54455 7.84537 3.72761 7.66501C3.91067 7.48465 3.8462 7.63031 3.8563 7.37352L5.71875 7.37366Z" fill="#C1092A"/>
<rect x="1.71484" y="7.37402" width="2.57011" height="0.856705" fill="#C1092A"/>
<rect x="1.28516" y="7.03516" width="0.599693" height="0.856705" fill="#C1092A"/>
<path d="M5.99693 6.92651C5.99792 6.31122 5.81149 5.7104 5.46276 5.20496C5.11403 4.69952 4.61974 4.31373 4.04645 4.09955V0.844958H4.59418C4.63701 0.844958 4.67808 0.827841 4.70836 0.797372C4.73865 0.766903 4.75566 0.725578 4.75566 0.682489C4.75566 0.639399 4.73865 0.598075 4.70836 0.567606C4.67808 0.537137 4.63701 0.52002 4.59418 0.52002H1.40259C1.35977 0.52002 1.31869 0.537137 1.28841 0.567606C1.25813 0.598075 1.24111 0.639399 1.24111 0.682489C1.24111 0.725578 1.25813 0.766903 1.28841 0.797372C1.31869 0.827841 1.35977 0.844958 1.40259 0.844958H1.95032V4.09955C1.37707 4.31376 0.88281 4.69956 0.534109 5.20499C0.185408 5.71043 -0.000993842 6.31124 3.98525e-06 6.92651C0.000665359 7.04513 0.00821386 7.16361 0.0226108 7.28135V7.28329C0.0233319 7.28822 0.0243019 7.2931 0.0255173 7.29792C0.114849 8.02802 0.466466 8.70006 1.01412 9.18741C1.56178 9.67476 2.26767 9.94377 2.99879 9.94377C3.72991 9.94377 4.4358 9.67476 4.98346 9.18741C5.53112 8.70006 5.88273 8.02802 5.97206 7.29792C5.97328 7.2931 5.97425 7.28822 5.97497 7.28329V7.28135C5.98923 7.16361 5.99656 7.04512 5.99693 6.92651ZM2.99831 9.61831C2.37866 9.61738 1.77848 9.40038 1.29998 9.00426C0.821478 8.60813 0.494239 8.05737 0.373984 7.44576H1.22529C1.26812 7.44576 1.30919 7.42865 1.33947 7.39818C1.36975 7.36771 1.38677 7.32638 1.38677 7.28329C1.39074 7.2345 1.4128 7.189 1.44858 7.15583C1.48436 7.12265 1.53124 7.10424 1.57989 7.10424C1.62855 7.10424 1.67542 7.12265 1.7112 7.15583C1.74698 7.189 1.76905 7.2345 1.77302 7.28329C1.77302 7.32638 1.79003 7.36771 1.82032 7.39818C1.8506 7.42865 1.89167 7.44576 1.9345 7.44576H5.62295C5.50263 8.0574 5.17532 8.60816 4.69677 9.00429C4.21822 9.40041 3.618 9.6174 2.99831 9.61831ZM5.66413 7.12083H2.07014C2.03586 7.01728 1.97006 6.92722 1.88207 6.86339C1.79408 6.79957 1.68836 6.76523 1.57989 6.76523C1.47142 6.76523 1.3657 6.79957 1.27771 6.86339C1.18973 6.92722 1.12393 7.01728 1.08965 7.12083H0.332808C0.328125 7.05584 0.322958 6.99199 0.322958 6.92586C0.322142 6.35891 0.499641 5.80624 0.830041 5.34698C1.16044 4.88771 1.6268 4.54541 2.16234 4.36908C2.19462 4.35838 2.22273 4.33769 2.24265 4.30998C2.26256 4.28227 2.27328 4.24894 2.27327 4.21474V0.844958H3.7235V4.21474C3.72349 4.24894 3.73421 4.28227 3.75413 4.30998C3.77405 4.33769 3.80215 4.35838 3.83443 4.36908C4.3701 4.54544 4.83655 4.88783 5.16699 5.34722C5.49742 5.80662 5.67489 6.35944 5.67398 6.92651C5.67398 6.99199 5.66881 7.05632 5.66413 7.12083Z" fill="black"/>
</svg>
