<svg width="428" height="428" viewBox="0 0 428 428" fill="none" xmlns="http://www.w3.org/2000/svg">
<g clip-path="url(#clip0_567_36)">
<path d="M406.001 256.668C400.343 256.668 394.917 258.916 390.916 262.916C386.916 266.917 384.668 272.343 384.668 278.001V363.335C384.668 368.993 382.42 374.419 378.42 378.42C374.419 382.42 368.993 384.668 363.335 384.668H64.668C59.01 384.668 53.5838 382.42 49.583 378.42C45.5822 374.419 43.3346 368.993 43.3346 363.335V278.001C43.3346 272.343 41.087 266.917 37.0862 262.916C33.0855 258.916 27.6593 256.668 22.0013 256.668C16.3433 256.668 10.9171 258.916 6.91636 262.916C2.91558 266.917 0.667969 272.343 0.667969 278.001V363.335C0.667969 380.308 7.41081 396.587 19.4131 408.589C31.4155 420.592 47.6941 427.335 64.668 427.335H363.335C380.308 427.335 396.587 420.592 408.589 408.589C420.592 396.587 427.335 380.308 427.335 363.335V278.001C427.335 272.343 425.087 266.917 421.086 262.916C417.085 258.916 411.659 256.668 406.001 256.668ZM198.855 293.148C200.884 295.09 203.276 296.613 205.895 297.628C208.448 298.757 211.209 299.34 214.001 299.34C216.793 299.34 219.554 298.757 222.108 297.628C224.727 296.613 227.119 295.09 229.148 293.148L314.481 207.815C318.498 203.798 320.755 198.349 320.755 192.668C320.755 186.987 318.498 181.538 314.481 177.521C310.464 173.504 305.016 171.247 299.335 171.247C293.654 171.247 288.205 173.504 284.188 177.521L235.335 226.588V22.0013C235.335 16.3434 233.087 10.9172 229.086 6.91636C225.085 2.91558 219.659 0.667969 214.001 0.667969C208.343 0.667969 202.917 2.91558 198.916 6.91636C194.916 10.9172 192.668 16.3434 192.668 22.0013V226.588L143.815 177.521C141.826 175.532 139.464 173.954 136.865 172.878C134.266 171.801 131.481 171.247 128.668 171.247C125.855 171.247 123.07 171.801 120.471 172.878C117.872 173.954 115.51 175.532 113.521 177.521C111.532 179.51 109.954 181.872 108.878 184.471C107.801 187.07 107.247 189.855 107.247 192.668C107.247 195.481 107.801 198.266 108.878 200.865C109.954 203.464 111.532 205.826 113.521 207.815L198.855 293.148Z" fill="#F8FAFC"/>
</g>
<defs>
<clipPath id="clip0_567_36">
<rect width="428" height="428" fill="white"/>
</clipPath>
</defs>
</svg>
